<?xml version="1.0" standalone="no"?>
<svg viewBox="0 0 200 200" xmlns="http://www.w3.org/2000/svg">
  <path fill="#FF0066" d="M36.5,-52C49.3,-48.6,62.9,-41.8,66.6,-31.1C70.3,-20.5,64.1,-6.1,58.5,5.9C52.8,17.9,47.8,27.5,42.6,41C37.3,54.5,31.7,71.9,21.8,75.1C11.9,78.3,-2.3,67.4,-14.8,59.6C-27.3,51.8,-38.1,47,-45.6,39.1C-53.1,31.2,-57.4,20,-55.4,10.2C-53.3,0.4,-44.9,-8.1,-40.5,-18.9C-36.2,-29.6,-36,-42.6,-29.9,-49C-23.8,-55.5,-11.9,-55.3,0,-55.3C11.9,-55.3,23.8,-55.4,36.5,-52Z" transform="translate(100 100)" />
</svg>
